<svg version="1.2" baseProfile="tiny-ps" xmlns="http://www.w3.org/2000/svg" viewBox="0 0 570 570" width="570" height="570">
	<title>wolf</title>
	<style>
		tspan { white-space:pre }
		.shp0 { fill: #000000 } 
	</style>
	<path id="Layer 1" class="shp0" d="M285 125L265 121L246 125L196 77L183 55L168 56L158 78L146 120L146 150L144 176L143 193L141 209L148 221L130 232L122 241L129 247L131 256L118 262L107 277L100 292L110 296L102 309L96 325L96 334L113 336L110 348L108 361L113 380L117 390L114 402L125 399L135 398L130 408L144 407L141 421L145 431L152 436L158 448L163 455L163 463L168 461L183 450L189 469L203 489L210 480L218 492L233 499L247 510L259 525L269 531L274 538L285 538L294 524L301 525L310 512L319 520L328 518L330 507L340 494L352 487L360 475L373 486L388 480L397 459L402 464L412 436L434 418L438 412L452 401L459 385L452 360L462 364L471 341L470 306L474 302L473 285L464 273L443 259L449 255L447 248L449 237L430 228L434 222L433 217L424 216L424 144L422 106L411 73L399 56L387 57L370 82L352 95L327 130L316 120L300 120L285 125Z" />
</svg>